<?xml version="1.0" encoding="UTF-8"?>
<svg xmlns="http://www.w3.org/2000/svg" id="Layer_1" data-name="Layer 1" viewBox="0 0 24 24">
  <path d="m5.648,5.958c.733.22,1.521.831,2.354,1.478,1.245.967,2.655,2.064,4.323,2.064,1.965,0,3.643-1.242,4.333-2.992.545.343,1.069.79,1.56,1.405.198.247.488.375.782.375.219,0,.439-.072.624-.219.431-.345.501-.974.156-1.405-.876-1.094-1.831-1.812-2.818-2.283C16.777,1.931,14.781-.01,12.325-.01,8.5-.01,5.821,2.131,4.843,3.396c-.331.426-.43.99-.264,1.506.163.509.562.904,1.069,1.056Zm6.677-3.968c1.117,0,2.073.71,2.473,1.713-.951-.17-1.898-.203-2.798-.203-.553,0-1,.448-1,1s.447,1,1,1c.96,0,1.902.044,2.808.254-.392,1.02-1.355,1.746-2.483,1.746-.981,0-2.009-.798-3.097-1.643-.783-.609-1.59-1.236-2.468-1.617,1.005-1.017,3.054-2.25,5.564-2.25Zm-3.235,12.814c-.533-1.176-1.489-2.067-2.69-2.511-.647-.239-1.322-.319-1.99-.267.176-.48.417-.983.736-1.503.289-.471.141-1.086-.33-1.375-.472-.29-1.087-.141-1.375.33-.726,1.184-1.147,2.31-1.285,3.335-1.922,1.285-2.701,3.825-1.711,6.006,1.751,3.858,5.895,4.919,7.122,5.152.103.02.205.029.307.029.442,0,.867-.181,1.176-.51.395-.421.543-1.012.396-1.575-.065-.26-.101-.52-.104-.776-.008-.585.055-1.19.122-1.83.153-1.472.312-2.995-.374-4.504Zm-1.615,4.297c-.07.669-.143,1.361-.133,2.062.003.239.022.48.06.722-1.341-.344-3.971-1.327-5.136-3.893-.424-.935-.292-1.979.242-2.77.309.689.837,1.536,1.786,2.485.195.195.451.293.707.293s.512-.098.707-.293c.391-.391.391-1.023,0-1.414-.978-.978-1.363-1.762-1.516-2.23.19-.042.382-.063.575-.063.317,0,.635.057.94.169.696.257,1.252.777,1.563,1.462.461,1.016.337,2.208.205,3.47Zm15.431-7.166h0c-.23-.489-.684-.831-1.214-.915-.547-.084-1.109.108-1.496.521-.556.592-1.321,1.124-2.132,1.686-1.309.908-2.661,1.847-3.455,3.25-.62,1.097-.773,2.368-.431,3.579.149.528.399,1.006.709,1.44-.584.251-1.244.432-1.99.509-.55.057-.948.549-.891,1.098.053.514.487.896.993.896,1.37-.017,2.537-.543,3.48-1.081.722.391,1.501.579,2.272.579,1.669,0,3.291-.869,4.162-2.409,1.851-3.27.865-7.292-.008-9.154Zm-1.732,8.169c-.579,1.025-1.732,1.526-2.844,1.353.848-.918,1.428-1.964,1.73-2.963.16-.528-.139-1.086-.668-1.246-.531-.16-1.086.139-1.246.668-.257.85-.782,1.751-1.589,2.496-.204-.267-.361-.569-.455-.901-.195-.693-.108-1.421.247-2.049.569-1.006,1.68-1.776,2.855-2.592.72-.5,1.46-1.014,2.094-1.605.609,1.593,1.181,4.532-.125,6.84Z"/>
</svg>
