<?xml version="1.0" encoding="UTF-8"?>
<svg xmlns="http://www.w3.org/2000/svg" id="Layer_1" data-name="Layer 1" viewBox="0 0 24 24" width="512" height="512"><path d="m24,11.5c0,.829-.672,1.5-1.5,1.5h-2c-.226,0-.425.152-.482.37,0,0-1.682,7.262-1.692,7.297-.248.8-.997,1.333-1.833,1.333-.846-.011-1.568-.565-1.798-1.378l-2.82-12.129-2.661,10.117c-.271.845-.95,1.358-1.752,1.389-.82.043-1.518-.43-1.823-1.171-.021-.049-1.638-5.581-1.638-5.581-.043-.113-.231-.247-.442-.247H1.5c-.828,0-1.5-.671-1.5-1.5s.672-1.5,1.5-1.5h2.058c1.475,0,2.799.933,3.295,2.322l.481,1.647,2.782-10.578c.282-.881,1.021-1.403,1.862-1.39.839.017,1.557.57,1.784,1.378l2.751,11.829.594-2.564c.422-1.577,1.812-2.643,3.393-2.643h2c.828,0,1.5.671,1.5,1.5Z"/></svg>
